<?xml version="1.0" encoding="UTF-8" standalone="no"?><!DOCTYPE svg PUBLIC "-//W3C//DTD SVG 1.1//EN" "http://www.w3.org/Graphics/SVG/1.1/DTD/svg11.dtd"><svg width="100%" height="100%" viewBox="0 0 1000 1000" version="1.1" xmlns="http://www.w3.org/2000/svg" xmlns:xlink="http://www.w3.org/1999/xlink" xml:space="preserve" xmlns:serif="http://www.serif.com/" style="fill-rule:evenodd;clip-rule:evenodd;stroke-miterlimit:10;"><rect id="_2019-Lines" serif:id="2019 Lines" x="0" y="0" width="1000" height="1000" style="fill:none;"/><path d="M86.919,922.318c1.342,1.136 2.012,2.319 2.012,3.55c0,1.041 -0.412,1.964 -1.238,2.769c-0.825,0.805 -1.806,1.207 -2.941,1.207c-1.032,0 -2.115,-0.426 -3.25,-1.278l-42.1,-32.944l0,29.82c0,1.42 -0.439,2.509 -1.316,3.266c-0.877,0.757 -1.986,1.136 -3.328,1.136c-1.444,0 -2.605,-0.379 -3.482,-1.136c-0.877,-0.757 -1.316,-1.846 -1.316,-3.266l0,-92.726c0,-1.42 0.439,-2.509 1.316,-3.266c0.877,-0.757 2.038,-1.136 3.482,-1.136c1.342,0 2.451,0.379 3.328,1.136c0.877,0.757 1.316,1.846 1.316,3.266l0,59.356l38.54,-31.808c1.135,-0.852 2.218,-1.278 3.25,-1.278c1.239,0 2.296,0.402 3.173,1.207c0.877,0.805 1.316,1.775 1.316,2.911c0,1.42 -0.619,2.556 -1.857,3.408l-33.433,27.122l36.528,28.684Z" style="fill:#fff;fill-rule:nonzero;"/><path d="M140.846,858.56c9.081,0 15.865,2.177 20.354,6.532c4.489,4.355 6.733,10.934 6.733,19.738l0,40.47c0,1.325 -0.413,2.39 -1.238,3.195c-0.826,0.805 -1.961,1.207 -3.405,1.207c-1.445,0 -2.58,-0.402 -3.406,-1.207c-0.825,-0.805 -1.238,-1.87 -1.238,-3.195l0,-8.52c-2.167,4.26 -5.314,7.55 -9.441,9.869c-4.128,2.319 -8.874,3.479 -14.24,3.479c-4.85,0 -9.287,-0.899 -13.311,-2.698c-4.025,-1.799 -7.197,-4.307 -9.519,-7.526c-2.322,-3.219 -3.483,-6.769 -3.483,-10.65c0,-5.112 1.445,-9.088 4.334,-11.928c2.889,-2.84 7.688,-4.875 14.395,-6.106c6.707,-1.231 16.045,-1.846 28.015,-1.846l3.25,0l0,-5.254c0,-6.248 -1.393,-10.816 -4.179,-13.703c-2.786,-2.887 -7.171,-4.331 -13.156,-4.331c-7.636,0 -14.911,1.846 -21.824,5.538c-0.31,0.189 -1.109,0.686 -2.399,1.491c-1.29,0.805 -2.399,1.207 -3.328,1.207c-1.032,0 -1.883,-0.355 -2.554,-1.065c-0.671,-0.71 -1.006,-1.586 -1.006,-2.627c0,-2.083 1.806,-4.118 5.417,-6.106c3.612,-1.893 7.636,-3.361 12.073,-4.402c4.437,-1.041 8.823,-1.562 13.156,-1.562Zm-5.107,64.042c6.707,0 12.202,-2.083 16.484,-6.248c4.282,-4.165 6.423,-9.467 6.423,-15.904l0,-4.686l-2.941,0c-9.906,0 -17.49,0.379 -22.752,1.136c-5.263,0.757 -8.978,2.059 -11.144,3.905c-2.167,1.846 -3.251,4.52 -3.251,8.023c0,3.976 1.651,7.266 4.953,9.869c3.302,2.603 7.378,3.905 12.228,3.905Z" style="fill:#fff;fill-rule:nonzero;"/><path d="M223.809,930.128c-4.334,0 -8.591,-0.544 -12.77,-1.633c-4.179,-1.089 -7.868,-2.58 -11.067,-4.473c-1.96,-1.231 -3.327,-2.296 -4.101,-3.195c-0.774,-0.899 -1.161,-1.917 -1.161,-3.053c0,-0.947 0.335,-1.751 1.006,-2.414c0.671,-0.663 1.47,-0.994 2.399,-0.994c0.929,0 2.528,0.71 4.798,2.13c2.993,1.799 6.062,3.266 9.21,4.402c3.147,1.136 7.094,1.704 11.84,1.704c6.088,0 10.835,-1.018 14.24,-3.053c3.405,-2.035 5.108,-4.946 5.108,-8.733c0,-2.272 -0.619,-4.142 -1.857,-5.609c-1.239,-1.467 -3.302,-2.745 -6.192,-3.834c-2.889,-1.089 -7.016,-2.154 -12.382,-3.195c-9.184,-1.893 -15.71,-4.331 -19.58,-7.313c-3.869,-2.982 -5.804,-6.982 -5.804,-11.999c0,-6.059 2.58,-10.958 7.739,-14.697c5.159,-3.739 11.866,-5.609 20.121,-5.609c4.025,0 7.868,0.473 11.531,1.42c3.664,0.947 6.837,2.319 9.519,4.118c3.612,2.272 5.418,4.497 5.418,6.674c0,0.947 -0.336,1.775 -1.006,2.485c-0.671,0.71 -1.471,1.065 -2.399,1.065c-1.032,0 -2.632,-0.757 -4.799,-2.272c-2.786,-1.799 -5.546,-3.242 -8.28,-4.331c-2.735,-1.089 -6.217,-1.633 -10.448,-1.633c-5.366,0 -9.648,1.112 -12.847,3.337c-3.198,2.225 -4.798,5.23 -4.798,9.017c0,2.177 0.542,3.976 1.625,5.396c1.084,1.42 2.941,2.674 5.572,3.763c2.632,1.089 6.424,2.154 11.377,3.195c7.12,1.515 12.588,3.124 16.406,4.828c3.818,1.704 6.553,3.739 8.204,6.106c1.651,2.367 2.476,5.396 2.476,9.088c0,5.775 -2.657,10.437 -7.971,13.987c-5.314,3.55 -12.357,5.325 -21.127,5.325Z" style="fill:#fff;fill-rule:nonzero;"/><path d="M315.748,858.56c6.604,0 12.434,1.491 17.49,4.473c5.056,2.982 8.977,7.195 11.763,12.638c2.786,5.443 4.179,11.762 4.179,18.957c0,7.1 -1.393,13.324 -4.179,18.673c-2.786,5.349 -6.707,9.49 -11.763,12.425c-5.056,2.935 -10.886,4.402 -17.49,4.402c-6.088,0 -11.351,-1.207 -15.788,-3.621c-4.437,-2.414 -7.79,-5.94 -10.06,-10.579l0,35.074c0,1.325 -0.413,2.39 -1.239,3.195c-0.825,0.805 -1.96,1.207 -3.405,1.207c-1.444,0 -2.605,-0.402 -3.482,-1.207c-0.877,-0.805 -1.316,-1.87 -1.316,-3.195l0,-87.756c0,-1.325 0.439,-2.39 1.316,-3.195c0.877,-0.805 2.038,-1.207 3.482,-1.207c1.445,0 2.58,0.402 3.405,1.207c0.826,0.805 1.239,1.87 1.239,3.195l0,9.514c2.27,-4.639 5.623,-8.165 10.06,-10.579c4.437,-2.414 9.7,-3.621 15.788,-3.621Zm-1.393,63.9c7.945,0 14.111,-2.438 18.496,-7.313c4.386,-4.875 6.578,-11.715 6.578,-20.519c0,-8.993 -2.192,-15.999 -6.578,-21.016c-4.385,-5.017 -10.499,-7.526 -18.341,-7.526c-7.843,0 -13.905,2.461 -18.187,7.384c-4.282,4.923 -6.423,11.881 -6.423,20.874c0,8.993 2.115,15.928 6.346,20.803c4.23,4.875 10.267,7.313 18.109,7.313Z" style="fill:#fff;fill-rule:nonzero;"/><path d="M433.69,914.366c0.929,0 1.729,0.355 2.399,1.065c0.671,0.71 1.006,1.538 1.006,2.485c0,2.083 -1.754,4.118 -5.262,6.106c-7.43,4.071 -15.272,6.106 -23.527,6.106c-11.453,0 -20.482,-3.171 -27.086,-9.514c-6.604,-6.343 -9.906,-15.052 -9.906,-26.128c0,-7.1 1.47,-13.372 4.411,-18.815c2.941,-5.443 7.068,-9.656 12.383,-12.638c5.314,-2.982 11.427,-4.473 18.341,-4.473c9.7,0 17.361,2.864 22.985,8.591c5.623,5.727 8.435,13.608 8.435,23.643c0,1.704 -0.412,2.958 -1.238,3.763c-0.825,0.805 -2.167,1.207 -4.024,1.207l-51.542,0c0.31,8.709 2.786,15.336 7.43,19.88c4.643,4.544 11.195,6.816 19.657,6.816c4.437,0 8.151,-0.544 11.144,-1.633c2.992,-1.089 6.191,-2.532 9.596,-4.331c2.27,-1.42 3.87,-2.13 4.798,-2.13Zm-27.241,-48.706c-7.223,0 -13.002,2.083 -17.335,6.248c-4.334,4.165 -6.914,9.987 -7.739,17.466l47.827,0c-0.207,-7.573 -2.27,-13.419 -6.192,-17.537c-3.921,-4.118 -9.441,-6.177 -16.561,-6.177Z" style="fill:#fff;fill-rule:nonzero;"/><path d="M499.472,858.844c1.96,-0.095 3.353,0.142 4.179,0.71c0.825,0.568 1.238,1.515 1.238,2.84c0,2.367 -1.548,3.692 -4.643,3.976l-4.644,0.426c-7.326,0.663 -12.769,3.077 -16.329,7.242c-3.56,4.165 -5.34,9.041 -5.34,14.626l0,36.778c0,1.42 -0.413,2.509 -1.238,3.266c-0.826,0.757 -1.961,1.136 -3.405,1.136c-1.445,0 -2.606,-0.379 -3.483,-1.136c-0.877,-0.757 -1.316,-1.846 -1.316,-3.266l0,-62.196c0,-1.42 0.439,-2.509 1.316,-3.266c0.877,-0.757 2.038,-1.136 3.483,-1.136c1.341,0 2.425,0.379 3.25,1.136c0.826,0.757 1.238,1.799 1.238,3.124l0,9.23c4.231,-8.141 12.073,-12.591 23.527,-13.348l2.167,-0.142Z" style="fill:#fff;fill-rule:nonzero;"/><path d="M525.885,929.844c-2.064,0 -3.792,-0.639 -5.185,-1.917c-1.393,-1.278 -2.089,-2.911 -2.089,-4.899c0,-1.988 0.696,-3.621 2.089,-4.899c1.393,-1.278 3.121,-1.917 5.185,-1.917c1.961,0 3.638,0.639 5.031,1.917c1.393,1.278 2.089,2.911 2.089,4.899c0,1.988 -0.696,3.621 -2.089,4.899c-1.393,1.278 -3.07,1.917 -5.031,1.917Z" style="fill:#fff;fill-rule:nonzero;"/><path d="M587.114,930.128c-4.334,0 -8.59,-0.544 -12.769,-1.633c-4.179,-1.089 -7.868,-2.58 -11.067,-4.473c-1.961,-1.231 -3.328,-2.296 -4.102,-3.195c-0.774,-0.899 -1.16,-1.917 -1.16,-3.053c0,-0.947 0.335,-1.751 1.006,-2.414c0.67,-0.663 1.47,-0.994 2.399,-0.994c0.928,0 2.528,0.71 4.798,2.13c2.992,1.799 6.062,3.266 9.209,4.402c3.147,1.136 7.094,1.704 11.841,1.704c6.088,0 10.835,-1.018 14.24,-3.053c3.405,-2.035 5.107,-4.946 5.107,-8.733c0,-2.272 -0.619,-4.142 -1.857,-5.609c-1.238,-1.467 -3.302,-2.745 -6.191,-3.834c-2.889,-1.089 -7.017,-2.154 -12.383,-3.195c-9.183,-1.893 -15.71,-4.331 -19.579,-7.313c-3.87,-2.982 -5.804,-6.982 -5.804,-11.999c0,-6.059 2.579,-10.958 7.739,-14.697c5.159,-3.739 11.866,-5.609 20.121,-5.609c4.024,0 7.868,0.473 11.531,1.42c3.663,0.947 6.836,2.319 9.519,4.118c3.612,2.272 5.417,4.497 5.417,6.674c0,0.947 -0.335,1.775 -1.006,2.485c-0.67,0.71 -1.47,1.065 -2.399,1.065c-1.032,0 -2.631,-0.757 -4.798,-2.272c-2.786,-1.799 -5.546,-3.242 -8.281,-4.331c-2.734,-1.089 -6.217,-1.633 -10.447,-1.633c-5.366,0 -9.648,1.112 -12.847,3.337c-3.199,2.225 -4.798,5.23 -4.798,9.017c0,2.177 0.541,3.976 1.625,5.396c1.083,1.42 2.941,2.674 5.572,3.763c2.631,1.089 6.423,2.154 11.376,3.195c7.12,1.515 12.589,3.124 16.407,4.828c3.818,1.704 6.552,3.739 8.203,6.106c1.651,2.367 2.477,5.396 2.477,9.088c0,5.775 -2.657,10.437 -7.971,13.987c-5.314,3.55 -12.357,5.325 -21.128,5.325Z" style="fill:#fff;fill-rule:nonzero;"/><path d="M679.053,858.56c6.604,0 12.434,1.491 17.491,4.473c5.056,2.982 8.977,7.195 11.763,12.638c2.786,5.443 4.179,11.762 4.179,18.957c0,7.1 -1.393,13.324 -4.179,18.673c-2.786,5.349 -6.707,9.49 -11.763,12.425c-5.057,2.935 -10.887,4.402 -17.491,4.402c-6.088,0 -11.35,-1.207 -15.787,-3.621c-4.437,-2.414 -7.791,-5.94 -10.061,-10.579l0,35.074c0,1.325 -0.413,2.39 -1.238,3.195c-0.826,0.805 -1.961,1.207 -3.405,1.207c-1.445,0 -2.606,-0.402 -3.483,-1.207c-0.877,-0.805 -1.315,-1.87 -1.315,-3.195l0,-87.756c0,-1.325 0.438,-2.39 1.315,-3.195c0.877,-0.805 2.038,-1.207 3.483,-1.207c1.444,0 2.579,0.402 3.405,1.207c0.825,0.805 1.238,1.87 1.238,3.195l0,9.514c2.27,-4.639 5.624,-8.165 10.061,-10.579c4.437,-2.414 9.699,-3.621 15.787,-3.621Zm-1.393,63.9c7.946,0 14.111,-2.438 18.497,-7.313c4.385,-4.875 6.578,-11.715 6.578,-20.519c0,-8.993 -2.193,-15.999 -6.578,-21.016c-4.386,-5.017 -10.5,-7.526 -18.342,-7.526c-7.842,0 -13.904,2.461 -18.186,7.384c-4.283,4.923 -6.424,11.881 -6.424,20.874c0,8.993 2.116,15.928 6.346,20.803c4.231,4.875 10.267,7.313 18.109,7.313Z" style="fill:#fff;fill-rule:nonzero;"/><path d="M769.135,858.56c9.081,0 15.865,2.177 20.354,6.532c4.489,4.355 6.733,10.934 6.733,19.738l0,40.47c0,1.325 -0.413,2.39 -1.238,3.195c-0.826,0.805 -1.961,1.207 -3.405,1.207c-1.445,0 -2.58,-0.402 -3.406,-1.207c-0.825,-0.805 -1.238,-1.87 -1.238,-3.195l0,-8.52c-2.167,4.26 -5.314,7.55 -9.441,9.869c-4.128,2.319 -8.874,3.479 -14.24,3.479c-4.85,0 -9.287,-0.899 -13.311,-2.698c-4.025,-1.799 -7.198,-4.307 -9.519,-7.526c-2.322,-3.219 -3.483,-6.769 -3.483,-10.65c0,-5.112 1.445,-9.088 4.334,-11.928c2.889,-2.84 7.687,-4.875 14.395,-6.106c6.707,-1.231 16.045,-1.846 28.015,-1.846l3.25,0l0,-5.254c0,-6.248 -1.393,-10.816 -4.179,-13.703c-2.786,-2.887 -7.171,-4.331 -13.156,-4.331c-7.636,0 -14.911,1.846 -21.824,5.538c-0.31,0.189 -1.109,0.686 -2.399,1.491c-1.29,0.805 -2.399,1.207 -3.328,1.207c-1.032,0 -1.883,-0.355 -2.554,-1.065c-0.671,-0.71 -1.006,-1.586 -1.006,-2.627c0,-2.083 1.806,-4.118 5.417,-6.106c3.612,-1.893 7.636,-3.361 12.073,-4.402c4.437,-1.041 8.823,-1.562 13.156,-1.562Zm-5.107,64.042c6.707,0 12.202,-2.083 16.484,-6.248c4.282,-4.165 6.423,-9.467 6.423,-15.904l0,-4.686l-2.941,0c-9.906,0 -17.49,0.379 -22.752,1.136c-5.263,0.757 -8.978,2.059 -11.144,3.905c-2.167,1.846 -3.251,4.52 -3.251,8.023c0,3.976 1.651,7.266 4.953,9.869c3.302,2.603 7.378,3.905 12.228,3.905Z" style="fill:#fff;fill-rule:nonzero;"/><path d="M857.824,930.128c-6.913,0 -13.001,-1.467 -18.264,-4.402c-5.262,-2.935 -9.338,-7.1 -12.227,-12.496c-2.89,-5.396 -4.334,-11.597 -4.334,-18.602c0,-7.1 1.47,-13.372 4.411,-18.815c2.941,-5.443 7.068,-9.68 12.383,-12.709c5.314,-3.029 11.427,-4.544 18.341,-4.544c3.921,0 7.739,0.473 11.454,1.42c3.714,0.947 7.016,2.367 9.906,4.26c1.857,1.231 3.173,2.343 3.946,3.337c0.774,0.994 1.161,2.059 1.161,3.195c0,1.041 -0.309,1.893 -0.928,2.556c-0.619,0.663 -1.393,0.994 -2.322,0.994c-1.032,0 -2.683,-0.805 -4.953,-2.414c-2.683,-1.799 -5.366,-3.219 -8.049,-4.26c-2.682,-1.041 -5.933,-1.562 -9.751,-1.562c-8.048,0 -14.343,2.532 -18.883,7.597c-4.54,5.065 -6.81,12.046 -6.81,20.945c0,8.804 2.244,15.644 6.733,20.519c4.488,4.875 10.757,7.313 18.806,7.313c3.921,0 7.197,-0.521 9.828,-1.562c2.631,-1.041 5.495,-2.461 8.59,-4.26c0.929,-0.568 1.832,-1.089 2.709,-1.562c0.877,-0.473 1.574,-0.71 2.09,-0.71c1.031,0 1.857,0.331 2.476,0.994c0.619,0.663 0.929,1.467 0.929,2.414c0,1.136 -0.361,2.13 -1.084,2.982c-0.722,0.852 -2.115,1.941 -4.179,3.266c-2.786,1.893 -6.165,3.384 -10.138,4.473c-3.973,1.089 -7.92,1.633 -11.841,1.633Z" style="fill:#fff;fill-rule:nonzero;"/><path d="M965.861,914.366c0.929,0 1.728,0.355 2.399,1.065c0.671,0.71 1.006,1.538 1.006,2.485c0,2.083 -1.754,4.118 -5.263,6.106c-7.429,4.071 -15.271,6.106 -23.526,6.106c-11.454,0 -20.483,-3.171 -27.087,-9.514c-6.604,-6.343 -9.906,-15.052 -9.906,-26.128c0,-7.1 1.471,-13.372 4.412,-18.815c2.941,-5.443 7.068,-9.656 12.382,-12.638c5.314,-2.982 11.428,-4.473 18.342,-4.473c9.699,0 17.361,2.864 22.984,8.591c5.624,5.727 8.436,13.608 8.436,23.643c0,1.704 -0.413,2.958 -1.238,3.763c-0.826,0.805 -2.167,1.207 -4.025,1.207l-51.541,0c0.309,8.709 2.786,15.336 7.429,19.88c4.643,4.544 11.196,6.816 19.657,6.816c4.437,0 8.152,-0.544 11.144,-1.633c2.993,-1.089 6.191,-2.532 9.597,-4.331c2.27,-1.42 3.869,-2.13 4.798,-2.13Zm-27.241,-48.706c-7.224,0 -13.002,2.083 -17.336,6.248c-4.334,4.165 -6.913,9.987 -7.739,17.466l47.827,0c-0.206,-7.573 -2.27,-13.419 -6.191,-17.537c-3.921,-4.118 -9.442,-6.177 -16.561,-6.177Z" style="fill:#fff;fill-rule:nonzero;"/><g><path id="Diamond" d="M807.953,413.025l-295.649,295.648l-320.257,0l0,-320.256l295.649,-295.649l320.257,0l0,320.257Zm-337.623,-362.025l-320.051,320.05l0,379.392l379.391,0l320.051,-320.051l0,-379.391l-379.391,0Z" style="fill:none;fill-rule:nonzero;stroke:#fff;stroke-width:8.5px;"/><path id="Bottom-Right-Triangle" serif:id="Bottom Right Triangle" d="M807.953,472.159l-236.514,236.514l236.514,0l0,-236.514Z" style="fill:none;stroke:#fff;stroke-width:8.5px;stroke-miterlimit:1.5;"/><path id="Bottom-Right-Triangle1" serif:id="Bottom Right Triangle" d="M192.048,329.282l236.514,-236.514l-236.514,0l0,236.514Z" style="fill:none;stroke:#fff;stroke-width:8.5px;stroke-miterlimit:1.5;"/></g></svg>