<?xml version="1.0" standalone="no"?>
<!DOCTYPE svg PUBLIC "-//W3C//DTD SVG 20010904//EN"
 "http://www.w3.org/TR/2001/REC-SVG-20010904/DTD/svg10.dtd">
<svg version="1.0" xmlns="http://www.w3.org/2000/svg"
 width="1000.000000pt" height="1000.000000pt" viewBox="0 0 1000.000000 1000.000000"
 preserveAspectRatio="xMidYMid meet">
<metadata>
Created by potrace 1.11, written by Peter Selinger 2001-2013
</metadata>
<g transform="translate(0.000000,1000.000000) scale(0.100000,-0.100000)"
fill="#000000" stroke="none">
<path d="M4175 9700 l-300 -300 -1637 0 -1638 0 0 -1638 0 -1638 -300 -299
-300 -300 0 -2762 0 -2763 2763 0 2762 0 300 300 300 300 1637 0 1638 0 0
1638 0 1637 300 300 300 300 0 2763 0 2762 -2762 0 -2763 0 -300 -300z m5225
-2637 l0 -2338 -2062 -2062 -2063 -2063 -2337 0 -2338 0 0 2337 0 2338 2062
2062 2063 2063 2337 0 2338 0 0 -2337z m-5931 1932 c-5 -6 -2195 -2196 -2349
-2350 l-120 -120 0 1238 0 1237 1237 0 c680 0 1234 -2 1232 -5z m5528 -7992
c-2 -2 -558 -2 -1235 -1 l-1232 3 1232 1233 1233 1232 3 -1231 c1 -678 1
-1234 -1 -1236z"/>
</g>
</svg>
