<svg xmlns="http://www.w3.org/2000/svg" viewBox="0 0 412.9 332.73">
  <g id="Layer_2" data-name="Layer 2">
    <g id="Layer_1-2" data-name="Layer 1">
      <path d="M227.83,10.84C241,8,262.73,3.42,281,.12a6.74,6.74,0,0,1,6.52,10.77C263.34,42,203.38,120.65,163.18,187.64c0,0,54.5-18.36,84.91-24.07a5.88,5.88,0,0,1,6.85,7l-5.62,24s91.53-1.45,160,17.17c5.35,1.45,4.54,9.2-1,9.25-72.86.74-165.29,18.9-209.63,35.93a5.8,5.8,0,0,1-7.68-6.94l5-18.22s-85.52,29.07-185,99.72C5,335.61-2.55,329,.84,322.59,74.07,184.34,178.71,57.26,208.1,22.66A35.71,35.71,0,0,1,227.83,10.84Z"/>
    </g>
  </g>
</svg>
