<?xml version="1.0" encoding="UTF-8"?>
<svg xmlns="http://www.w3.org/2000/svg" xmlns:xlink="http://www.w3.org/1999/xlink" width="16px" height="16px" viewBox="0 0 16 16" version="1.1">
<g id="surface1">
<path style=" stroke:none;fill-rule:nonzero;fill:rgb(0%,0%,0%);fill-opacity:1;" d="M 4.441406 6.046875 L 2 4.9375 L 2 14.273438 L 4.441406 16 L 14 14.5625 L 14 4.667969 Z M 3.332031 7.007812 L 4 7.308594 L 4 14.054688 L 3.332031 13.582031 Z M 12.667969 13.414062 L 5.332031 14.519531 L 5.332031 7.265625 L 12.667969 6.207031 Z M 11.332031 2.859375 L 11.332031 4.027344 C 11.332031 4.191406 11.210938 4.328125 11.050781 4.355469 C 10.847656 4.382812 10.667969 4.226562 10.667969 4.023438 L 10.667969 2.859375 C 10.667969 2.398438 10.511719 1.992188 10.230469 1.710938 C 9.984375 1.464844 9.667969 1.332031 9.308594 1.332031 C 8.277344 1.332031 7.335938 2.371094 7.332031 3.511719 L 7.332031 4.632812 C 7.332031 4.796875 7.210938 4.9375 7.050781 4.960938 C 6.847656 4.992188 6.667969 4.835938 6.667969 4.632812 L 6.667969 3.511719 C 6.671875 2.003906 7.910156 0.667969 9.308594 0.667969 C 10.453125 0.667969 11.335938 1.589844 11.332031 2.859375 Z M 4.667969 4.332031 L 4.667969 2.84375 C 4.671875 1.335938 5.910156 0 7.308594 0 C 7.636719 0 7.9375 0.0820312 8.207031 0.222656 C 7.925781 0.335938 7.660156 0.488281 7.417969 0.675781 L 7.308594 0.667969 C 6.277344 0.667969 5.335938 1.707031 5.332031 2.84375 L 5.332031 4.332031 C 5.332031 4.5 5.210938 4.636719 5.046875 4.664062 C 4.847656 4.691406 4.667969 4.539062 4.667969 4.332031 Z M 4.667969 4.332031 "/>
</g>
</svg>
